# xmcd
#
# Track frame offsets:
#	150
#	20550
#	35775
#	50650
#
# Disc length: 853 seconds
#
# Revision: 0
# Processed by: cddbd v1.4PL0 Copyright (c) Steve Scherf et al.
# Submitted via: audiograbber 1.82.02
#
DISCID=33035304
DTITLE=Country Only - Ein Countrygirl im Wüstensand
DYEAR=1900
DGENRE=Country
TTITLE0=Country Only - Ein Countrygirl im Wüstensand
TTITLE1=Country Only - Nicht Baby, nicht sugar
TTITLE2=Country Only - Schön, dass ihr da seid
TTITLE3=Country Only - Das Tier
EXTD=
EXTT0=
EXTT1=
EXTT2=
EXTT3=
PLAYORDER=
